<svg xmlns="http://www.w3.org/2000/svg" width="800" height="396" font-family="-apple-system, 'Segoe UI', Helvetica, Arial, sans-serif">
  <style>
    .lbl  { fill: #8b949e; font-size: 14px; }
    .val  { fill: #8b949e; font-size: 13px; font-weight: 600; }
    .ttl  { fill: #8b949e; font-size: 17px; font-weight: 700; }
    .sub  { fill: #8b949e; font-size: 12px; }
    .axis { stroke: #8b949e; stroke-opacity: .25; }
  </style>
  <text x="20" y="28" class="ttl">JurisBench-BR v0 — cabeçalho → corpo da ementa (STJ, 200 consultas, 1.500 docs)</text>
  <text x="20" y="48" class="sub">Quanto maior, melhor. Barra cheia = nDCG@10, barra clara = Recall@10. Resultados de 12/06/2026.</text>
  <line x1="250" y1="68" x2="250" y2="356" class="axis"/>
  <text x="240" y="96" text-anchor="end" class="lbl">BM25 (busca lexical, 1994)</text>
  <rect x="250" y="80" width="347" height="14" rx="2" fill="#388bfd"/>
  <text x="605" y="92" class="val">0.693</text>
  <rect x="250" y="96" width="412" height="14" rx="2" fill="#388bfd" fill-opacity="0.45"/>
  <text x="670" y="108" class="val">0.825</text>
  <text x="240" y="142" text-anchor="end" class="lbl">BM25 + e5-large (híbrido RRF)</text>
  <rect x="250" y="126" width="326" height="14" rx="2" fill="#8957e5"/>
  <text x="584" y="138" class="val">0.652</text>
  <rect x="250" y="142" width="398" height="14" rx="2" fill="#8957e5" fill-opacity="0.45"/>
  <text x="656" y="154" class="val">0.795</text>
  <text x="240" y="188" text-anchor="end" class="lbl">multilingual-e5-large</text>
  <rect x="250" y="172" width="220" height="14" rx="2" fill="#f85149"/>
  <text x="478" y="184" class="val">0.440</text>
  <rect x="250" y="188" width="288" height="14" rx="2" fill="#f85149" fill-opacity="0.45"/>
  <text x="546" y="200" class="val">0.575</text>
  <text x="240" y="234" text-anchor="end" class="lbl">bge-m3</text>
  <rect x="250" y="218" width="174" height="14" rx="2" fill="#f85149"/>
  <text x="432" y="230" class="val">0.347</text>
  <rect x="250" y="234" width="235" height="14" rx="2" fill="#f85149" fill-opacity="0.45"/>
  <text x="493" y="246" class="val">0.470</text>
  <text x="240" y="280" text-anchor="end" class="lbl">serafim-335m</text>
  <rect x="250" y="264" width="63" height="14" rx="2" fill="#f85149"/>
  <text x="321" y="276" class="val">0.127</text>
  <rect x="250" y="280" width="110" height="14" rx="2" fill="#f85149" fill-opacity="0.45"/>
  <text x="368" y="292" class="val">0.220</text>
  <text x="240" y="326" text-anchor="end" class="lbl">MiniLM-multilingual</text>
  <rect x="250" y="310" width="8" height="14" rx="2" fill="#f85149"/>
  <text x="266" y="322" class="val">0.017</text>
  <rect x="250" y="326" width="20" height="14" rx="2" fill="#f85149" fill-opacity="0.45"/>
  <text x="278" y="338" class="val">0.040</text>
</svg>